<?xml version="1.0" encoding="UTF-8"?><svg xmlns="http://www.w3.org/2000/svg" xmlns:xlink="http://www.w3.org/1999/xlink" stroke-dasharray="none" shape-rendering="auto" font-family="'Tahoma'" width="320" text-rendering="auto" fill-opacity="1" contentScriptType="text/ecmascript" color-interpolation="auto" color-rendering="auto" preserveAspectRatio="xMidYMid meet" font-size="12px" viewBox="0 0 320 121" fill="black" stroke="black" image-rendering="optimizeQuality" stroke-miterlimit="10" zoomAndPan="magnify" version="1.0" stroke-linecap="square" stroke-linejoin="miter" contentStyleType="text/css" font-style="normal" height="121" stroke-width="1" stroke-dashoffset="0" font-weight="normal" stroke-opacity="1">
    <!--Generated by the Batik Graphics2D SVG Generator-->
    <defs id="genericDefs"/>
    <g>
        <defs id="defs1">
            <linearGradient x1="10" x2="10" y1="10" gradientUnits="userSpaceOnUse" y2="111" xlink:type="simple" xlink:actuate="onLoad" id="linearGradient1" xlink:show="other" spreadMethod="pad">
                <stop stop-opacity="1" stop-color="white" offset="0%"/>
                <stop stop-opacity="1" stop-color="white" offset="100%"/>
            </linearGradient>
            <clipPath clipPathUnits="userSpaceOnUse" id="clipPath1">
                <path d="M10 10 L10 110 L145 110 L145 10 Z"/>
            </clipPath>
            <clipPath clipPathUnits="userSpaceOnUse" id="clipPath2">
                <path d="M11 12 L147 12 L147 28 L11 28 L11 12 Z"/>
            </clipPath>
            <clipPath clipPathUnits="userSpaceOnUse" id="clipPath3">
                <path d="M45 27 L112 27 L112 43 L45 43 L45 27 Z"/>
            </clipPath>
            <clipPath clipPathUnits="userSpaceOnUse" id="clipPath4">
                <path d="M10 42 L147 42 L147 66 L10 66 L10 42 Z"/>
            </clipPath>
            <clipPath clipPathUnits="userSpaceOnUse" id="clipPath5">
                <path d="M10 65 L147 65 L147 89 L10 89 L10 65 Z"/>
            </clipPath>
            <clipPath clipPathUnits="userSpaceOnUse" id="clipPath6">
                <path d="M10 88 L147 88 L147 112 L10 112 L10 88 Z"/>
            </clipPath>
            <clipPath clipPathUnits="userSpaceOnUse" id="clipPath7">
                <path d="M9 9 L147 9 L147 112 L9 112 L9 9 Z"/>
            </clipPath>
            <clipPath clipPathUnits="userSpaceOnUse" id="clipPath8">
                <path d="M209 9 L311 9 L311 71 L209 71 L209 9 Z"/>
            </clipPath>
            <clipPath clipPathUnits="userSpaceOnUse" id="clipPath9">
                <path d="M-1 -1 L321 -1 L321 122 L-1 122 L-1 -1 Z"/>
            </clipPath>
        </defs>
        <g fill="url(#linearGradient1)" stroke-miterlimit="0" stroke-width="0" font-family="'Segoe UI'" stroke="url(#linearGradient1)" stroke-linejoin="round">
            <rect x="10" width="136" height="101" y="10" clip-path="url(#clipPath1)" stroke="none"/>
            <text x="12" y="25" clip-path="url(#clipPath2)" fill="black" font-family="'Tahoma'" stroke="none" xml:space="preserve">«StandardProfile::Utility»</text>
            <text x="46" y="40" clip-path="url(#clipPath3)" fill="black" font-family="'Tahoma'" stroke="none" xml:space="preserve">SampleClass</text>
        </g>
        <g fill="rgb(176,176,176)" stroke-width="1.1" font-family="'Segoe UI'" stroke-linecap="butt" stroke="rgb(176,176,176)">
            <line y2="43" fill="none" x1="10" clip-path="url(#clipPath4)" x2="146" y1="43"/>
            <line y2="66" fill="none" x1="10" clip-path="url(#clipPath5)" x2="146" y1="66"/>
            <line y2="89" fill="none" x1="10" clip-path="url(#clipPath6)" x2="146" y1="89"/>
            <rect x="10" y="10" clip-path="url(#clipPath7)" fill="none" width="135" rx="0" ry="0" height="100"/>
            <path fill="white" d="M210 10 L210 10 L297 10 L309 22 L309 69 L210 69 L210 10 Z" fill-rule="evenodd" clip-path="url(#clipPath8)" stroke="none"/>
            <line y2="10" fill="none" x1="210" clip-path="url(#clipPath8)" x2="297" y1="10"/>
            <line y2="22" fill="none" x1="297" clip-path="url(#clipPath8)" x2="309" y1="10"/>
            <line y2="69" fill="none" x1="309" clip-path="url(#clipPath8)" x2="309" y1="22"/>
            <line y2="69" fill="none" x1="309" clip-path="url(#clipPath8)" x2="210" y1="69"/>
            <line y2="10" fill="none" x1="210" clip-path="url(#clipPath8)" x2="210" y1="69"/>
            <line y2="10" fill="none" x1="210" clip-path="url(#clipPath8)" x2="210" y1="10"/>
            <line y2="22" fill="none" x1="297" clip-path="url(#clipPath8)" x2="297" y1="10"/>
            <line y2="22" fill="none" x1="297" clip-path="url(#clipPath8)" x2="310" y1="22"/>
            <line clip-path="url(#clipPath9)" fill="none" x1="146" x2="210" y1="52" y2="45" stroke-dasharray="6.6,3.3"/>
        </g>
    </g>
</svg>
