<?xml version="1.0" encoding="UTF-8"?><svg xmlns="http://www.w3.org/2000/svg" xmlns:xlink="http://www.w3.org/1999/xlink" stroke-dasharray="none" shape-rendering="auto" font-family="'Segoe UI'" width="120" text-rendering="auto" fill-opacity="1" contentScriptType="text/ecmascript" color-interpolation="auto" color-rendering="auto" preserveAspectRatio="xMidYMid meet" font-size="12px" viewBox="0 0 120 123" fill="black" stroke="black" image-rendering="optimizeQuality" stroke-miterlimit="10" zoomAndPan="magnify" version="1.0" stroke-linecap="square" stroke-linejoin="miter" contentStyleType="text/css" font-style="normal" height="123" stroke-width="1" stroke-dashoffset="0" font-weight="normal" stroke-opacity="1">
    <!--Generated by the Batik Graphics2D SVG Generator-->
    <defs id="genericDefs"/>
    <g>
        <defs id="defs1">
            <linearGradient x1="10" x2="10" y1="10" gradientUnits="userSpaceOnUse" y2="113" xlink:type="simple" xlink:actuate="onLoad" id="linearGradient1" xlink:show="other" spreadMethod="pad">
                <stop stop-opacity="1" stop-color="white" offset="0%"/>
                <stop stop-opacity="1" stop-color="rgb(195,215,221)" offset="100%"/>
            </linearGradient>
            <clipPath clipPathUnits="userSpaceOnUse" id="clipPath1">
                <path d="M10 10 L10 112 L109 112 L109 10 Z"/>
            </clipPath>
            <clipPath clipPathUnits="userSpaceOnUse" id="clipPath2">
                <path d="M38 12 L84 12 L84 29 L38 29 L38 12 Z"/>
            </clipPath>
            <clipPath clipPathUnits="userSpaceOnUse" id="clipPath3">
                <path d="M26 28 L95 28 L95 45 L26 45 L26 28 Z"/>
            </clipPath>
            <clipPath clipPathUnits="userSpaceOnUse" id="clipPath4">
                <path d="M10 44 L111 44 L111 68 L10 68 L10 44 Z"/>
            </clipPath>
            <clipPath clipPathUnits="userSpaceOnUse" id="clipPath5">
                <path d="M10 67 L111 67 L111 91 L10 91 L10 67 Z"/>
            </clipPath>
            <clipPath clipPathUnits="userSpaceOnUse" id="clipPath6">
                <path d="M10 90 L111 90 L111 114 L10 114 L10 90 Z"/>
            </clipPath>
            <clipPath clipPathUnits="userSpaceOnUse" id="clipPath7">
                <path d="M9 9 L111 9 L111 114 L9 114 L9 9 Z"/>
            </clipPath>
        </defs>
        <g fill="url(#linearGradient1)" stroke-miterlimit="0" stroke-width="0" font-family="'Segoe UI'" stroke="url(#linearGradient1)" stroke-linejoin="round">
            <rect x="10" width="100" height="103" y="10" clip-path="url(#clipPath1)" stroke="none"/>
            <text fill="black" x="39" xml:space="preserve" y="26" clip-path="url(#clipPath2)" stroke="none">«Utility»</text>
            <text fill="black" x="27" xml:space="preserve" y="42" clip-path="url(#clipPath3)" stroke="none">SampleClass</text>
        </g>
        <g stroke-linecap="butt" font-family="'Segoe UI'" stroke-width="1.1">
            <line y2="45" fill="none" x1="10" clip-path="url(#clipPath4)" x2="110" y1="45"/>
            <line y2="68" fill="none" x1="10" clip-path="url(#clipPath5)" x2="110" y1="68"/>
            <line y2="91" fill="none" x1="10" clip-path="url(#clipPath6)" x2="110" y1="91"/>
            <rect x="10" y="10" clip-path="url(#clipPath7)" fill="none" width="99" rx="0" ry="0" height="102"/>
        </g>
    </g>
</svg>
