<?xml version="1.0" encoding="UTF-8"?><svg xmlns="http://www.w3.org/2000/svg" xmlns:xlink="http://www.w3.org/1999/xlink" stroke-dasharray="none" shape-rendering="auto" font-family="'Dialog'" width="320" text-rendering="auto" fill-opacity="1" contentScriptType="text/ecmascript" color-interpolation="auto" color-rendering="auto" preserveAspectRatio="xMidYMid meet" font-size="12px" viewBox="0 0 320 127" fill="black" stroke="black" image-rendering="auto" stroke-miterlimit="10" zoomAndPan="magnify" version="1.0" stroke-linecap="square" stroke-linejoin="miter" contentStyleType="text/css" font-style="normal" height="127" stroke-width="1" stroke-dashoffset="0" font-weight="normal" stroke-opacity="1">
    <!--Generated by the Batik Graphics2D SVG Generator-->
    <defs id="genericDefs"/>
    <g>
        <defs id="defs1">
            <linearGradient x1="10" x2="10" y1="10" gradientUnits="userSpaceOnUse" y2="117" xlink:type="simple" xlink:actuate="onLoad" id="linearGradient1" xlink:show="other" spreadMethod="pad">
                <stop stop-opacity="1" stop-color="white" offset="0%"/>
                <stop stop-opacity="1" stop-color="white" offset="100%"/>
            </linearGradient>
            <clipPath clipPathUnits="userSpaceOnUse" id="clipPath1">
                <path d="M10 10 L10 116 L148 116 L148 10 Z"/>
            </clipPath>
            <clipPath clipPathUnits="userSpaceOnUse" id="clipPath2">
                <path d="M11 12 L150 12 L150 31 L11 31 L11 12 Z"/>
            </clipPath>
            <clipPath clipPathUnits="userSpaceOnUse" id="clipPath3">
                <path d="M43 30 L117 30 L117 49 L43 49 L43 30 Z"/>
            </clipPath>
            <clipPath clipPathUnits="userSpaceOnUse" id="clipPath4">
                <path d="M10 48 L150 48 L150 72 L10 72 L10 48 Z"/>
            </clipPath>
            <clipPath clipPathUnits="userSpaceOnUse" id="clipPath5">
                <path d="M10 71 L150 71 L150 95 L10 95 L10 71 Z"/>
            </clipPath>
            <clipPath clipPathUnits="userSpaceOnUse" id="clipPath6">
                <path d="M10 94 L150 94 L150 118 L10 118 L10 94 Z"/>
            </clipPath>
            <clipPath clipPathUnits="userSpaceOnUse" id="clipPath7">
                <path d="M9 9 L150 9 L150 118 L9 118 L9 9 Z"/>
            </clipPath>
            <clipPath clipPathUnits="userSpaceOnUse" id="clipPath8">
                <path d="M209 9 L311 9 L311 71 L209 71 L209 9 Z"/>
            </clipPath>
            <clipPath clipPathUnits="userSpaceOnUse" id="clipPath9">
                <path d="M-1 -1 L321 -1 L321 128 L-1 128 L-1 -1 Z"/>
            </clipPath>
        </defs>
        <g fill="url(#linearGradient1)" stroke-miterlimit="0" font-size="13px" stroke-width="0" stroke="url(#linearGradient1)" stroke-linejoin="round">
            <rect x="10" width="139" height="107" y="10" clip-path="url(#clipPath1)" stroke="none"/>
            <text x="12" font-size="12px" y="26" clip-path="url(#clipPath2)" fill="black" stroke="none" xml:space="preserve">«StandardProfile::Utility»</text>
            <text x="44" font-size="12px" y="44" clip-path="url(#clipPath3)" fill="black" stroke="none" xml:space="preserve">SampleClass</text>
        </g>
        <g fill="rgb(176,176,176)" font-size="13px" stroke-width="1.1" stroke-linecap="butt" stroke="rgb(176,176,176)">
            <line y2="49" fill="none" x1="10" clip-path="url(#clipPath4)" x2="149" y1="49"/>
            <line y2="72" fill="none" x1="10" clip-path="url(#clipPath5)" x2="149" y1="72"/>
            <line y2="95" fill="none" x1="10" clip-path="url(#clipPath6)" x2="149" y1="95"/>
            <rect x="10" y="10" clip-path="url(#clipPath7)" fill="none" width="138" rx="0" ry="0" height="106"/>
            <path fill="white" d="M210 10 L297 10 L309 22 L309 69 L210 69 ZM210 10" fill-rule="evenodd" clip-path="url(#clipPath8)" stroke="none"/>
            <line y2="10" fill="none" x1="210" clip-path="url(#clipPath8)" x2="297" y1="10"/>
            <line y2="22" fill="none" x1="297" clip-path="url(#clipPath8)" x2="309" y1="10"/>
            <line y2="69" fill="none" x1="309" clip-path="url(#clipPath8)" x2="309" y1="22"/>
            <line y2="69" fill="none" x1="309" clip-path="url(#clipPath8)" x2="210" y1="69"/>
            <line y2="10" fill="none" x1="210" clip-path="url(#clipPath8)" x2="210" y1="69"/>
            <line y2="10" fill="none" x1="210" clip-path="url(#clipPath8)" x2="210" y1="10"/>
            <line y2="22" fill="none" x1="297" clip-path="url(#clipPath8)" x2="297" y1="10"/>
            <line y2="22" fill="none" x1="297" clip-path="url(#clipPath8)" x2="310" y1="22"/>
            <line clip-path="url(#clipPath9)" fill="none" x1="149" x2="210" y1="54" y2="46" stroke-dasharray="6.6,3.3"/>
        </g>
    </g>
</svg>
