<?xml version="1.0" encoding="UTF-8"?><svg xmlns="http://www.w3.org/2000/svg" xmlns:xlink="http://www.w3.org/1999/xlink" stroke-dasharray="none" shape-rendering="auto" font-family="'Dialog'" width="320" text-rendering="auto" fill-opacity="1" contentScriptType="text/ecmascript" color-interpolation="auto" color-rendering="auto" preserveAspectRatio="xMidYMid meet" font-size="12px" viewBox="0 0 320 123" fill="black" stroke="black" image-rendering="auto" stroke-miterlimit="10" zoomAndPan="magnify" version="1.0" stroke-linecap="square" stroke-linejoin="miter" contentStyleType="text/css" font-style="normal" height="123" stroke-width="1" stroke-dashoffset="0" font-weight="normal" stroke-opacity="1">
    <!--Generated by the Batik Graphics2D SVG Generator-->
    <defs id="genericDefs"/>
    <g>
        <defs id="defs1">
            <linearGradient x1="10" x2="10" y1="10" gradientUnits="userSpaceOnUse" y2="113" xlink:type="simple" xlink:actuate="onLoad" id="linearGradient1" xlink:show="other" spreadMethod="pad">
                <stop stop-opacity="1" stop-color="white" offset="0%"/>
                <stop stop-opacity="1" stop-color="white" offset="100%"/>
            </linearGradient>
            <clipPath clipPathUnits="userSpaceOnUse" id="clipPath1">
                <path d="M10 10 L10 112 L161 112 L161 10 Z"/>
            </clipPath>
            <clipPath clipPathUnits="userSpaceOnUse" id="clipPath2">
                <path d="M11 12 L163 12 L163 29 L11 29 L11 12 Z"/>
            </clipPath>
            <clipPath clipPathUnits="userSpaceOnUse" id="clipPath3">
                <path d="M48 28 L125 28 L125 45 L48 45 L48 28 Z"/>
            </clipPath>
            <clipPath clipPathUnits="userSpaceOnUse" id="clipPath4">
                <path d="M10 44 L163 44 L163 68 L10 68 L10 44 Z"/>
            </clipPath>
            <clipPath clipPathUnits="userSpaceOnUse" id="clipPath5">
                <path d="M10 67 L163 67 L163 91 L10 91 L10 67 Z"/>
            </clipPath>
            <clipPath clipPathUnits="userSpaceOnUse" id="clipPath6">
                <path d="M10 90 L163 90 L163 114 L10 114 L10 90 Z"/>
            </clipPath>
            <clipPath clipPathUnits="userSpaceOnUse" id="clipPath7">
                <path d="M9 9 L163 9 L163 114 L9 114 L9 9 Z"/>
            </clipPath>
            <clipPath clipPathUnits="userSpaceOnUse" id="clipPath8">
                <path d="M209 9 L311 9 L311 71 L209 71 L209 9 Z"/>
            </clipPath>
            <clipPath clipPathUnits="userSpaceOnUse" id="clipPath9">
                <path d="M-1 -1 L321 -1 L321 124 L-1 124 L-1 -1 Z"/>
            </clipPath>
        </defs>
        <g fill="url(#linearGradient1)" stroke-miterlimit="0" font-size="13px" stroke-width="0" stroke="url(#linearGradient1)" stroke-linejoin="round">
            <rect x="10" width="152" height="103" y="10" clip-path="url(#clipPath1)" stroke="none"/>
            <text x="12" font-size="12px" y="25" clip-path="url(#clipPath2)" fill="black" stroke="none" xml:space="preserve">«StandardProfile::Utility»</text>
            <text x="49" font-size="12px" y="41" clip-path="url(#clipPath3)" fill="black" stroke="none" xml:space="preserve">SampleClass</text>
        </g>
        <g fill="rgb(176,176,176)" font-size="13px" stroke-width="1.1" stroke-linecap="butt" stroke="rgb(176,176,176)">
            <line y2="45" fill="none" x1="10" clip-path="url(#clipPath4)" x2="162" y1="45"/>
            <line y2="68" fill="none" x1="10" clip-path="url(#clipPath5)" x2="162" y1="68"/>
            <line y2="91" fill="none" x1="10" clip-path="url(#clipPath6)" x2="162" y1="91"/>
            <rect x="10" y="10" clip-path="url(#clipPath7)" fill="none" width="151" rx="0" ry="0" height="102"/>
            <path fill="white" d="M210 10 L297 10 L309 22 L309 69 L210 69 ZM210 10" fill-rule="evenodd" clip-path="url(#clipPath8)" stroke="none"/>
            <line y2="10" fill="none" x1="210" clip-path="url(#clipPath8)" x2="297" y1="10"/>
            <line y2="22" fill="none" x1="297" clip-path="url(#clipPath8)" x2="309" y1="10"/>
            <line y2="69" fill="none" x1="309" clip-path="url(#clipPath8)" x2="309" y1="22"/>
            <line y2="69" fill="none" x1="309" clip-path="url(#clipPath8)" x2="210" y1="69"/>
            <line y2="10" fill="none" x1="210" clip-path="url(#clipPath8)" x2="210" y1="69"/>
            <line y2="10" fill="none" x1="210" clip-path="url(#clipPath8)" x2="210" y1="10"/>
            <line y2="22" fill="none" x1="297" clip-path="url(#clipPath8)" x2="297" y1="10"/>
            <line y2="22" fill="none" x1="297" clip-path="url(#clipPath8)" x2="310" y1="22"/>
            <line clip-path="url(#clipPath9)" fill="none" x1="162" x2="210" y1="52" y2="46" stroke-dasharray="6.6,3.3"/>
        </g>
    </g>
</svg>
