<?xml version="1.0" encoding="UTF-8"?><svg xmlns="http://www.w3.org/2000/svg" xmlns:xlink="http://www.w3.org/1999/xlink" stroke-dasharray="none" shape-rendering="auto" font-family="'Arial'" width="120" text-rendering="auto" fill-opacity="1" contentScriptType="text/ecmascript" color-interpolation="auto" color-rendering="auto" preserveAspectRatio="xMidYMid meet" font-size="12px" viewBox="0 0 120 121" fill="black" stroke="black" image-rendering="optimizeQuality" stroke-miterlimit="10" zoomAndPan="magnify" version="1.0" stroke-linecap="square" stroke-linejoin="miter" contentStyleType="text/css" font-style="normal" height="121" stroke-width="1" stroke-dashoffset="0" font-weight="normal" stroke-opacity="1">
    <!--Generated by the Batik Graphics2D SVG Generator-->
    <defs id="genericDefs"/>
    <g>
        <defs id="defs1">
            <linearGradient x1="10" x2="10" y1="10" gradientUnits="userSpaceOnUse" y2="111" xlink:type="simple" xlink:actuate="onLoad" id="linearGradient1" xlink:show="other" spreadMethod="pad">
                <stop stop-opacity="1" stop-color="white" offset="0%"/>
                <stop stop-opacity="1" stop-color="rgb(195,215,221)" offset="100%"/>
            </linearGradient>
            <clipPath clipPathUnits="userSpaceOnUse" id="clipPath1">
                <path d="M10 10 L10 110 L109 110 L109 10 Z"/>
            </clipPath>
            <clipPath clipPathUnits="userSpaceOnUse" id="clipPath2">
                <path d="M38 12 L84 12 L84 28 L38 28 L38 12 Z"/>
            </clipPath>
            <clipPath clipPathUnits="userSpaceOnUse" id="clipPath3">
                <path d="M23 27 L98 27 L98 43 L23 43 L23 27 Z"/>
            </clipPath>
            <clipPath clipPathUnits="userSpaceOnUse" id="clipPath4">
                <path d="M10 42 L111 42 L111 66 L10 66 L10 42 Z"/>
            </clipPath>
            <clipPath clipPathUnits="userSpaceOnUse" id="clipPath5">
                <path d="M10 65 L111 65 L111 89 L10 89 L10 65 Z"/>
            </clipPath>
            <clipPath clipPathUnits="userSpaceOnUse" id="clipPath6">
                <path d="M10 88 L111 88 L111 112 L10 112 L10 88 Z"/>
            </clipPath>
            <clipPath clipPathUnits="userSpaceOnUse" id="clipPath7">
                <path d="M9 9 L111 9 L111 112 L9 112 L9 9 Z"/>
            </clipPath>
        </defs>
        <g fill="url(#linearGradient1)" stroke-miterlimit="0" font-size="13px" stroke-width="0" stroke="url(#linearGradient1)" stroke-linejoin="round">
            <rect x="10" width="100" height="101" y="10" clip-path="url(#clipPath1)" stroke="none"/>
        </g>
        <g stroke-miterlimit="0" stroke-width="0" font-family="'Arial'" stroke-linejoin="round">
            <text x="39" xml:space="preserve" y="24" clip-path="url(#clipPath2)" stroke="none">«Utility»</text>
            <text x="24" xml:space="preserve" y="39" clip-path="url(#clipPath3)" stroke="none">SampleClass</text>
        </g>
        <g stroke-linecap="butt" font-size="13px" stroke-width="1.1">
            <line y2="43" fill="none" x1="10" clip-path="url(#clipPath4)" x2="110" y1="43"/>
            <line y2="66" fill="none" x1="10" clip-path="url(#clipPath5)" x2="110" y1="66"/>
            <line y2="89" fill="none" x1="10" clip-path="url(#clipPath6)" x2="110" y1="89"/>
            <rect x="10" y="10" clip-path="url(#clipPath7)" fill="none" width="99" rx="0" ry="0" height="100"/>
        </g>
    </g>
</svg>
