<?xml version="1.0" encoding="UTF-8"?><svg xmlns="http://www.w3.org/2000/svg" xmlns:xlink="http://www.w3.org/1999/xlink" stroke-dasharray="none" shape-rendering="auto" font-family="'.AppleSystemUIFont'" width="120" text-rendering="auto" fill-opacity="1" contentScriptType="text/ecmascript" color-interpolation="auto" color-rendering="auto" preserveAspectRatio="xMidYMid meet" font-size="12px" viewBox="0 0 120 120" fill="black" stroke="black" image-rendering="optimizeQuality" stroke-miterlimit="10" zoomAndPan="magnify" version="1.0" stroke-linecap="square" stroke-linejoin="miter" contentStyleType="text/css" font-style="normal" height="120" stroke-width="1" stroke-dashoffset="0" font-weight="normal" stroke-opacity="1">
    <!--Generated by the Batik Graphics2D SVG Generator-->
    <defs id="genericDefs"/>
    <g>
        <defs id="defs1">
            <linearGradient x1="10" x2="10" y1="10" gradientUnits="userSpaceOnUse" y2="110" xlink:type="simple" xlink:actuate="onLoad" id="linearGradient1" xlink:show="other" spreadMethod="pad">
                <stop stop-opacity="1" stop-color="white" offset="0%"/>
                <stop stop-opacity="1" stop-color="rgb(195,215,221)" offset="100%"/>
            </linearGradient>
            <clipPath clipPathUnits="userSpaceOnUse" id="clipPath1">
                <path d="M10 10 L10 109 L109 109 L109 10 Z"/>
            </clipPath>
            <clipPath clipPathUnits="userSpaceOnUse" id="clipPath2">
                <path d="M43 12 L78 12 L78 24 L43 24 L43 12 Z"/>
            </clipPath>
            <clipPath clipPathUnits="userSpaceOnUse" id="clipPath3">
                <path d="M33 23 L89 23 L89 35 L33 35 L33 23 Z"/>
            </clipPath>
            <clipPath clipPathUnits="userSpaceOnUse" id="clipPath4">
                <path d="M10 34 L111 34 L111 60 L10 60 L10 34 Z"/>
            </clipPath>
            <clipPath clipPathUnits="userSpaceOnUse" id="clipPath5">
                <path d="M10 59 L111 59 L111 85 L10 85 L10 59 Z"/>
            </clipPath>
            <clipPath clipPathUnits="userSpaceOnUse" id="clipPath6">
                <path d="M10 84 L111 84 L111 110 L10 110 L10 84 Z"/>
            </clipPath>
            <clipPath clipPathUnits="userSpaceOnUse" id="clipPath7">
                <path d="M9 9 L111 9 L111 111 L9 111 L9 9 Z"/>
            </clipPath>
        </defs>
        <g font-size="11px" fill="url(#linearGradient1)" font-family="'.AppleSystemUIFont'" stroke-linejoin="round" stroke="url(#linearGradient1)" stroke-width="0" stroke-miterlimit="0">
            <rect x="10" width="100" height="100" y="10" clip-path="url(#clipPath1)" stroke="none"/>
        </g>
        <g stroke-miterlimit="0" stroke-width="0" font-size="9px" font-family="'Arial'" stroke-linejoin="round">
            <text x="44" xml:space="preserve" y="22" clip-path="url(#clipPath2)" stroke="none">«Utility»</text>
            <text x="34" xml:space="preserve" y="33" clip-path="url(#clipPath3)" stroke="none">SampleClass</text>
        </g>
        <g font-size="11px" stroke-width="1.1" font-family="'.AppleSystemUIFont'" stroke-linecap="butt">
            <line y2="35" fill="none" x1="10" clip-path="url(#clipPath4)" x2="110" y1="35"/>
            <line y2="60" fill="none" x1="10" clip-path="url(#clipPath5)" x2="110" y1="60"/>
            <line y2="85" fill="none" x1="10" clip-path="url(#clipPath6)" x2="110" y1="85"/>
            <rect x="10" y="10" clip-path="url(#clipPath7)" fill="none" width="99" rx="0" ry="0" height="99"/>
        </g>
    </g>
</svg>
