<?xml version="1.0" encoding="UTF-8"?><svg xmlns="http://www.w3.org/2000/svg" xmlns:xlink="http://www.w3.org/1999/xlink" stroke-dasharray="none" shape-rendering="auto" font-family="'Arial'" width="320" text-rendering="auto" fill-opacity="1" contentScriptType="text/ecmascript" color-interpolation="auto" color-rendering="auto" preserveAspectRatio="xMidYMid meet" font-size="12px" viewBox="0 0 320 120" fill="black" stroke="black" image-rendering="optimizeQuality" stroke-miterlimit="10" zoomAndPan="magnify" version="1.0" stroke-linecap="square" stroke-linejoin="miter" contentStyleType="text/css" font-style="normal" height="120" stroke-width="1" stroke-dashoffset="0" font-weight="normal" stroke-opacity="1">
    <!--Generated by the Batik Graphics2D SVG Generator-->
    <defs id="genericDefs"/>
    <g>
        <defs id="defs1">
            <linearGradient x1="10" x2="10" y1="10" gradientUnits="userSpaceOnUse" y2="110" xlink:type="simple" xlink:actuate="onLoad" id="linearGradient1" xlink:show="other" spreadMethod="pad">
                <stop stop-opacity="1" stop-color="white" offset="0%"/>
                <stop stop-opacity="1" stop-color="white" offset="100%"/>
            </linearGradient>
            <clipPath clipPathUnits="userSpaceOnUse" id="clipPath1">
                <path d="M10 10 L10 109 L111 109 L111 10 Z"/>
            </clipPath>
            <clipPath clipPathUnits="userSpaceOnUse" id="clipPath2">
                <path d="M11 12 L113 12 L113 25 L11 25 L11 12 Z"/>
            </clipPath>
            <clipPath clipPathUnits="userSpaceOnUse" id="clipPath3">
                <path d="M36 24 L88 24 L88 37 L36 37 L36 24 Z"/>
            </clipPath>
            <clipPath clipPathUnits="userSpaceOnUse" id="clipPath4">
                <path d="M10 36 L113 36 L113 62 L10 62 L10 36 Z"/>
            </clipPath>
            <clipPath clipPathUnits="userSpaceOnUse" id="clipPath5">
                <path d="M10 61 L113 61 L113 87 L10 87 L10 61 Z"/>
            </clipPath>
            <clipPath clipPathUnits="userSpaceOnUse" id="clipPath6">
                <path d="M10 86 L113 86 L113 111 L10 111 L10 86 Z"/>
            </clipPath>
            <clipPath clipPathUnits="userSpaceOnUse" id="clipPath7">
                <path d="M9 9 L113 9 L113 111 L9 111 L9 9 Z"/>
            </clipPath>
            <clipPath clipPathUnits="userSpaceOnUse" id="clipPath8">
                <path d="M209 9 L311 9 L311 71 L209 71 L209 9 Z"/>
            </clipPath>
            <clipPath clipPathUnits="userSpaceOnUse" id="clipPath9">
                <path d="M-1 -1 L321 -1 L321 121 L-1 121 L-1 -1 Z"/>
            </clipPath>
        </defs>
        <g font-size="11px" fill="url(#linearGradient1)" font-family="'.AppleSystemUIFont'" stroke-linejoin="round" stroke="url(#linearGradient1)" stroke-width="0" stroke-miterlimit="0">
            <rect x="10" width="102" height="100" y="10" clip-path="url(#clipPath1)" stroke="none"/>
        </g>
        <g stroke-miterlimit="0" stroke-width="0" font-size="9px" font-family="'Tahoma'" stroke-linejoin="round">
            <text x="12" xml:space="preserve" y="22" clip-path="url(#clipPath2)" stroke="none">«StandardProfile::Utility»</text>
            <text x="37" xml:space="preserve" y="34" clip-path="url(#clipPath3)" stroke="none">SampleClass</text>
        </g>
        <g fill="rgb(176,176,176)" font-size="11px" stroke-width="1.1" font-family="'.AppleSystemUIFont'" stroke-linecap="butt" stroke="rgb(176,176,176)">
            <line y2="37" fill="none" x1="10" clip-path="url(#clipPath4)" x2="112" y1="37"/>
            <line y2="62" fill="none" x1="10" clip-path="url(#clipPath5)" x2="112" y1="62"/>
            <line y2="87" fill="none" x1="10" clip-path="url(#clipPath6)" x2="112" y1="87"/>
            <rect x="10" y="10" clip-path="url(#clipPath7)" fill="none" width="101" rx="0" ry="0" height="99"/>
        </g>
        <g fill="white" font-size="9px" stroke-width="1.1" font-family="'Tahoma'" stroke-linecap="butt" stroke="white">
            <path d="M210 10 L210 10 L297 10 L309 22 L309 69 L210 69 L210 10 ZM210 10" fill-rule="evenodd" clip-path="url(#clipPath8)" stroke="none"/>
            <line clip-path="url(#clipPath8)" fill="none" x1="210" x2="297" y1="10" y2="10" stroke="rgb(176,176,176)"/>
            <line clip-path="url(#clipPath8)" fill="none" x1="297" x2="309" y1="10" y2="22" stroke="rgb(176,176,176)"/>
            <line clip-path="url(#clipPath8)" fill="none" x1="309" x2="309" y1="22" y2="69" stroke="rgb(176,176,176)"/>
            <line clip-path="url(#clipPath8)" fill="none" x1="309" x2="210" y1="69" y2="69" stroke="rgb(176,176,176)"/>
            <line clip-path="url(#clipPath8)" fill="none" x1="210" x2="210" y1="69" y2="10" stroke="rgb(176,176,176)"/>
            <line clip-path="url(#clipPath8)" fill="none" x1="210" x2="210" y1="10" y2="10" stroke="rgb(176,176,176)"/>
            <line clip-path="url(#clipPath8)" fill="none" x1="297" x2="297" y1="10" y2="22" stroke="rgb(176,176,176)"/>
            <line clip-path="url(#clipPath8)" fill="none" x1="297" x2="310" y1="22" y2="22" stroke="rgb(176,176,176)"/>
            <line clip-path="url(#clipPath9)" fill="none" x1="112" x2="210" y1="54" y2="45" stroke-dasharray="6.6,3.3" stroke="rgb(176,176,176)"/>
        </g>
    </g>
</svg>
